<?xml version="1.0" encoding="UTF-8"?>
<svg id="Layer_1" data-name="Layer 1" xmlns="http://www.w3.org/2000/svg" viewBox="0 0 1080 1080">
  <defs>
    <style>
      .cls-1, .cls-2, .cls-3 {
        stroke-width: 0px;
      }

      .cls-2 {
        fill: #1db954;
      }

      .cls-3 {
        fill: #fff;
      }
    </style>
  </defs>
  <path class="cls-1" d="m468.72,385.94c-60.02,0-108.85,48.83-108.85,108.85s48.83,108.84,108.85,108.84,108.85-48.83,108.85-108.84-48.83-108.85-108.85-108.85Zm0,189.19c-44.46,0-80.51-36.04-80.51-80.5s36.05-80.51,80.51-80.51,80.51,36.04,80.51,80.51-36.05,80.5-80.51,80.5Zm0-189.19c-60.02,0-108.85,48.83-108.85,108.85s48.83,108.84,108.85,108.84,108.85-48.83,108.85-108.84-48.83-108.85-108.85-108.85Zm0,189.19c-44.46,0-80.51-36.04-80.51-80.5s36.05-80.51,80.51-80.51,80.51,36.04,80.51,80.51-36.05,80.5-80.51,80.5Zm0-189.19c-60.02,0-108.85,48.83-108.85,108.85s48.83,108.84,108.85,108.84,108.85-48.83,108.85-108.84-48.83-108.85-108.85-108.85Zm0,189.19c-44.46,0-80.51-36.04-80.51-80.5s36.05-80.51,80.51-80.51,80.51,36.04,80.51,80.51-36.05,80.5-80.51,80.5Zm0-189.19c-60.02,0-108.85,48.83-108.85,108.85s48.83,108.84,108.85,108.84,108.85-48.83,108.85-108.84-48.83-108.85-108.85-108.85Zm0,189.19c-44.46,0-80.51-36.04-80.51-80.5s36.05-80.51,80.51-80.51,80.51,36.04,80.51,80.51-36.05,80.5-80.51,80.5Zm360.3-105.22c-1.59-23.28-5.41-46.13-11.31-68.3-17.21-64.62-52.21-123.47-101.95-170.12-67.13-62.95-154.81-97.62-246.89-97.62-48.73,0-96.01,9.55-140.52,28.38-42.99,18.18-81.6,44.21-114.75,77.36-33.14,33.15-59.17,71.75-77.35,114.74-18.83,44.52-28.38,91.8-28.38,140.52s9.55,96.01,28.38,140.53c18.18,42.99,44.21,81.59,77.35,114.74,33.15,33.15,71.76,59.18,114.75,77.36,44.51,18.83,91.79,28.37,140.52,28.37,191.95,0,350.29-150,360.47-341.49.35-6.49.53-13.05.53-19.51,0-8.33-.29-16.73-.85-24.96Zm-36.62,42.49c-9.14,171.86-151.25,306.47-323.53,306.47-86.54,0-167.91-33.7-229.1-94.89-61.2-61.2-94.9-142.56-94.9-229.11s33.7-167.9,94.9-229.1,142.56-94.9,229.1-94.9,161.33,31.12,221.58,87.61c59.83,56.11,95.9,131.87,101.61,213.4h0c0,.2.03.38.04.57h0c.51,7.39.77,14.93.77,22.42,0,5.8-.16,11.69-.47,17.53Zm-323.68-126.46c-60.02,0-108.85,48.83-108.85,108.85s48.83,108.84,108.85,108.84,108.85-48.83,108.85-108.84-48.83-108.85-108.85-108.85Zm0,189.19c-44.46,0-80.51-36.04-80.51-80.5s36.05-80.51,80.51-80.51,80.51,36.04,80.51,80.51-36.05,80.5-80.51,80.5Zm0-189.19c-60.02,0-108.85,48.83-108.85,108.85s48.83,108.84,108.85,108.84,108.85-48.83,108.85-108.84-48.83-108.85-108.85-108.85Zm0,189.19c-44.46,0-80.51-36.04-80.51-80.5s36.05-80.51,80.51-80.51,80.51,36.04,80.51,80.51-36.05,80.5-80.51,80.5Zm0-189.19c-60.02,0-108.85,48.83-108.85,108.85s48.83,108.84,108.85,108.84,108.85-48.83,108.85-108.84-48.83-108.85-108.85-108.85Zm0,189.19c-44.46,0-80.51-36.04-80.51-80.5s36.05-80.51,80.51-80.51,80.51,36.04,80.51,80.51-36.05,80.5-80.51,80.5Z"/>
  <path class="cls-1" d="m489.21,494.75c0,11.38-9.23,20.62-20.63,20.62s-20.62-9.24-20.62-20.62,9.23-20.63,20.62-20.63,20.63,9.23,20.63,20.63Z"/>
  <path class="cls-1" d="m699.25,478.94c-.93.14-1.85.21-2.76.21-9.01,0-16.9-6.59-18.28-15.77-6.16-41.26-24.37-79.48-52.66-110.52-23.01-25.25-51.39-44.28-83.02-55.85-3.13-1.14-6.29-2.21-9.48-3.2-.67-.21-1.34-.43-2.01-.63-4.36-1.36-8.76-2.56-13.18-3.62-32.43-7.8-66.31-7.73-99.21.34-41,10.05-77.57,31.83-105.75,62.97-3.66,4.04-8.68,6.09-13.73,6.09-4.42,0-8.86-1.58-12.4-4.78-7.58-6.85-8.17-18.55-1.31-26.13,33.16-36.65,76.17-62.27,124.38-74.09,44.39-10.88,90.31-9.37,133.47,4.29.02,0,.04.01.07.02,42,12.97,79.62,36.85,109.52,69.67,33.24,36.48,54.65,81.42,61.91,129.97,1.51,10.1-5.46,19.52-15.56,21.03Z"/>
  <path class="cls-3" d="m517.86,289.56c4.42,1.06,8.82,2.26,13.18,3.62-3.75-1.13-7.54-2.16-11.37-3.08-.62-.15-1.22-.33-1.81-.54Z"/>
  <path class="cls-1" d="m419.11,736.03c-1.33,0-2.67-.14-4.02-.44-48.26-10.69-91.8-35.4-125.92-71.46-33.92-35.85-56.17-80.38-64.33-128.78-1.7-10.08,5.09-19.62,15.16-21.32,10.08-1.7,19.62,5.09,21.32,15.16,6.94,41.14,25.87,79,54.73,109.51,29.02,30.67,66.03,51.68,107.04,60.76,9.98,2.21,16.27,12.09,14.06,22.06-1.91,8.63-9.56,14.5-18.04,14.5Z"/>
  <path class="cls-3" d="m542.53,297.01c-.55-.14-1.1-.31-1.64-.51-2.6-.95-5.21-1.85-7.84-2.69,3.19.99,6.35,2.06,9.48,3.2Z"/>
  <path class="cls-2" d="m980.37,284.53l-80,257c-1.76,5.63-6.85,9.56-12.75,9.83-5.92.24-11.32-3.2-13.57-8.66l-49.26-119.65-66.95,183.42c-1.28,3.51-3.92,6.37-7.32,7.92l-76.41,35.03,1.24,2.9c3.26,7.64-.3,16.47-7.94,19.72l-99.13,42.21c-7.64,3.25-16.47-.31-19.72-7.95l-13.46-31.62c-3.26-7.64.3-16.47,7.94-19.73l99.13-42.2c7.64-3.25,16.47.3,19.72,7.94l1.26,2.96,70.39-32.27,77.31-211.81c1.98-5.43,7.09-9.08,12.87-9.2h.28c5.66,0,10.78,3.42,12.95,8.67l48.22,117.11,68.46-219.94c2.3-7.38,10.14-11.51,17.53-9.21,7.38,2.3,11.51,10.15,9.21,17.53Z"/>
</svg>